<svg id="Layer_1" data-name="Layer 1" xmlns="http://www.w3.org/2000/svg" viewBox="0 0 67.79 67.79"><defs><style>.cls-1{fill:#265c5c;}.cls-2{fill:#046065;}</style></defs><title>logo</title><path class="cls-1" d="M64.26,6.49a3,3,0,0,1,3,3V65.32a3,3,0,0,1-3,3H8.39a3,3,0,0,1-3-3V9.45a3,3,0,0,1,3-3H64.26m0-3H8.39a6,6,0,0,0-6,6V65.32a6,6,0,0,0,6,6H64.26a6,6,0,0,0,6-6V9.45a6,6,0,0,0-6-6Z" transform="translate(-2.43 -3.49)"/><rect class="cls-2" x="26.19" y="19.83" width="25.11" height="4.65" rx="1.59"/><rect class="cls-2" x="26.19" y="43.31" width="25.11" height="4.65" rx="1.59"/><rect class="cls-2" x="26.19" y="31.57" width="25.11" height="4.65" rx="1.59"/><rect class="cls-2" x="11.3" y="39.18" width="19.88" height="4.65" rx="1.41" transform="translate(-22.7 59.26) rotate(-90)"/><rect class="cls-2" x="18.64" y="23.6" width="5.22" height="4.65" rx="0.72" transform="translate(-7.11 43.68) rotate(-90)"/></svg>